<?xml version="1.0" encoding="utf-8"?>
<!-- Generator: Adobe Illustrator 24.1.1, SVG Export Plug-In . SVG Version: 6.00 Build 0)  -->
<svg version="1.1" id="Capa_1" xmlns="http://www.w3.org/2000/svg" xmlns:xlink="http://www.w3.org/1999/xlink" x="0px" y="0px"
	 viewBox="0 0 1024 1024" style="enable-background:new 0 0 1024 1024;" xml:space="preserve">
<style type="text/css">
	.st0{fill:url(#SVGID_1_);}
	.st1{fill:#FFFFFF;}
	.st2{opacity:0.32;}
</style>
<g>
	<linearGradient id="SVGID_1_" gradientUnits="userSpaceOnUse" x1="0" y1="512" x2="1024" y2="512">
		<stop  offset="0" style="stop-color:#00A99D"/>
		<stop  offset="1" style="stop-color:#29ABE2"/>
	</linearGradient>
	<path class="st0" d="M826.2,1024H197.8C88.6,1024,0,935.4,0,826.2V197.8C0,88.6,88.6,0,197.8,0h628.4C935.4,0,1024,88.6,1024,197.8
		v628.4C1024,935.4,935.4,1024,826.2,1024z"/>
</g>
<g>
	<g>
		<g>
			<path class="st1" d="M556.2,203.7h-44.7c-7.9,0-14.4,6.5-14.4,14.4v53.6c0,7.9,6.5,14.4,14.4,14.4h44.7c7.9,0,14.4-6.5,14.4-14.4
				V218C570.7,210.1,564.3,203.7,556.2,203.7z M547.9,263.3h-28v-36.9h28V263.3z"/>
		</g>
	</g>
	<g>
		<g>
			<path class="st1" d="M645.2,203.7h-44.7c-7.9,0-14.4,6.5-14.4,14.4v53.6c0,7.9,6.5,14.4,14.4,14.4h44.7c7.9,0,14.4-6.5,14.4-14.4
				V218C659.5,210.1,653.1,203.7,645.2,203.7z M636.8,263.3h-28v-36.9h28V263.3z"/>
		</g>
	</g>
	<g>
		<g>
			<path class="st1" d="M734,203.7h-44.7c-7.9,0-14.4,6.5-14.4,14.4v53.6c0,7.9,6.5,14.4,14.4,14.4H734c7.9,0,14.4-6.5,14.4-14.4
				V218C748.4,210.1,741.9,203.7,734,203.7z M725.7,263.3h-28v-36.9h28V263.3z"/>
		</g>
	</g>
	<g>
		<g>
			<path class="st1" d="M556.2,336.8h-44.7c-7.9,0-14.4,6.5-14.4,14.4v53.6c0,7.9,6.5,14.4,14.4,14.4h44.7c7.9,0,14.4-6.5,14.4-14.4
				v-53.6C570.7,343.2,564.3,336.8,556.2,336.8z M547.9,396.5h-28v-36.9h28V396.5z"/>
		</g>
	</g>
	<g>
		<g>
			<path class="st1" d="M645.2,336.8h-44.7c-7.9,0-14.4,6.5-14.4,14.4v53.6c0,7.9,6.5,14.4,14.4,14.4h44.7c7.9,0,14.4-6.5,14.4-14.4
				v-53.6C659.5,343.2,653.1,336.8,645.2,336.8z M636.8,396.5h-28v-36.9h28V396.5z"/>
		</g>
	</g>
	<g>
		<g>
			<path class="st1" d="M734,336.8h-44.7c-7.9,0-14.4,6.5-14.4,14.4v53.6c0,7.9,6.5,14.4,14.4,14.4H734c7.9,0,14.4-6.5,14.4-14.4
				v-53.6C748.4,343.2,741.9,336.8,734,336.8z M725.7,396.5h-28v-36.9h28V396.5z"/>
		</g>
	</g>
	<g>
		<g>
			<path class="st1" d="M556.2,470h-44.7c-7.9,0-14.4,6.5-14.4,14.4V538c0,7.9,6.5,14.4,14.4,14.4h44.7c7.9,0,14.4-6.5,14.4-14.4
				v-53.6C570.7,476.4,564.3,470,556.2,470z M547.9,529.7h-28v-36.9h28V529.7z"/>
		</g>
	</g>
	<g>
		<g>
			<path class="st1" d="M645.2,470h-44.7c-7.9,0-14.4,6.5-14.4,14.4V538c0,7.9,6.5,14.4,14.4,14.4h44.7c7.9,0,14.4-6.5,14.4-14.4
				v-53.6C659.5,476.4,653.1,470,645.2,470z M636.8,529.7h-28v-36.9h28V529.7z"/>
		</g>
	</g>
	<g>
		<g>
			<path class="st1" d="M734,470h-44.7c-7.9,0-14.4,6.5-14.4,14.4V538c0,7.9,6.5,14.4,14.4,14.4H734c7.9,0,14.4-6.5,14.4-14.4v-53.6
				C748.4,476.4,741.9,470,734,470z M725.7,529.7h-28v-36.9h28V529.7z"/>
		</g>
	</g>
	<g>
		<g>
			<path class="st1" d="M734,603.2h-44.7c-7.9,0-14.4,6.5-14.4,14.4v53.6c0,7.9,6.5,14.4,14.4,14.4H734c7.9,0,14.4-6.5,14.4-14.4
				v-53.6C748.4,609.6,741.9,603.2,734,603.2z M725.7,662.9h-28V626h28V662.9z"/>
		</g>
	</g>
	<g>
		<g>
			<path class="st1" d="M882.8,653.9c-14.5-21.4-43.9-27-65.4-12.7l-31.2,20.9V173h2.3c8.2,0,14.9-6.7,14.9-14.9V129
				c0-8.2-6.7-14.9-14.9-14.9h-72.6c-6.3,0-11.3,5.1-11.3,11.3c0,6.2,5.1,11.3,11.3,11.3h64.8v13.5H461.4v-13.4h183.3
				c6.3,0,11.3-5.1,11.3-11.3s-5.1-11.4-11.3-11.4h-191c-8.2,0-14.9,6.7-14.9,14.9v29.1c0,8.2,6.7,14.9,14.9,14.9h5.8v146h-23.3V291
				c0-9.8-7.9-17.7-17.7-17.7h-85.9c-9.8,0-17.7,7.9-17.7,17.7v28.1h-16.3c-10.2,0-18.4,8.2-18.4,18.4v260.7
				c-4.8-0.3-9.6-0.5-14.5-0.5h-18v-5.9c0-22.1-18-40-40-40H173c-22.1,0-40,18-40,40v162.3c0,6.3,5.1,11.3,11.3,11.3
				c6.3,0,11.3-5.1,11.3-11.3V591.9c0-9.5,7.8-17.3,17.3-17.3h34.6c9.6,0,17.3,7.8,17.3,17.3v255.8c0,9.5-7.8,17.3-17.3,17.3H173
				c-9.6,0-17.3-7.8-17.3-17.3v-22.3c0-6.3-5.1-11.3-11.3-11.3s-11.3,5.1-11.3,11.3v22.3c0,22.1,18,40,40,40h34.6
				c22.1,0,40-18,40-40v-0.6l157.5,59.6c0.3,0.2,0.6,0.2,0.9,0.3c6.9,1.9,13.8,3,20.7,3c3.7,0,7.5-0.3,11.1-0.9l0,0l232.4-33.5
				c0.1,0,0.1,0,0.2,0c19.9-3.2,38.6-11.6,54.2-24.2c0.2-0.1,0.3-0.2,0.4-0.4l150.2-135.1C892.8,700,896.2,673.5,882.8,653.9z
				 M482.1,173h281.3v504.3l-94.6,63.3l-31.7-1.8l-0.8-8.1c-0.6-6-1.9-11.7-3.9-17.1c-0.7-1.8-1.4-3.6-2.2-5.3
				c-1.2-2.6-2.6-5.1-4-7.5c-3.6-5.7-7.9-10.8-13-15.2h31.9c7.9,0,14.4-6.5,14.4-14.4v-53.6c0-7.9-6.5-14.4-14.4-14.4h-44.7
				c-7.9,0-14.4,6.5-14.4,14.4V671c-2.9-0.8-5.8-1.4-8.9-1.9c-0.1,0-0.2,0-0.3,0l-6.2-0.7v-50.7c0-7.9-6.5-14.4-14.4-14.4h-44.7
				c-7.9,0-14.4,6.5-14.4,14.4v42.4l-15.1-1.7L482.1,173L482.1,173z M608.8,662.9V626h28v36.9H608.8z M547.9,625.9v36.9H523l-3-0.4
				v-36.6L547.9,625.9L547.9,625.9z M337.6,296.1h75.8v23h-75.8V296.1z M302.7,341.8L302.7,341.8h156.7v35.5H331
				c-7.4,0-13.4,6-13.4,13.4v34.4c0,7.4,6,13.4,13.4,13.4h128.4v32H331c-7.4,0-13.4,6-13.4,13.4v34.4c0,7.4,6,13.4,13.4,13.4h128.4
				v32H331c-7.4,0-13.4,6-13.4,13.4v27.1c-1.9-0.5-3.9-0.9-5.8-1.2c-0.9-0.2-1.9-0.4-2.7-0.5c-1.1-0.2-2.2-0.4-3.3-0.6
				c-1-0.2-2.1-0.4-3.1-0.5C302.7,600.8,302.7,341.8,302.7,341.8z M459.4,400.1v15.5h-119v-15.5H459.4z M459.4,493.1v15.5h-119
				v-15.5H459.4z M340.4,601.6V586h119v15.5H340.4z M459.4,624.3v31.2l-3.5-0.4c-7.4-1-14.6-2.5-21.7-4.3
				c-13.8-3.5-27.2-8.4-40-14.7c-1.7-0.9-3.4-1.7-5.1-2.6c-2.7-1.5-5.4-3-8.2-4.5c-2-1.2-4-2.3-6-3.3c-0.5-0.2-0.9-0.5-1.3-0.7
				c-0.4-0.2-0.8-0.5-1.2-0.6L459.4,624.3L459.4,624.3z M860,698.8L710,833.7c-12.4,10.1-27.4,16.7-43.1,19.3l-232.4,33.5
				c-0.1,0-0.2,0.1-0.3,0.1c-6.9,1.1-14.2,0.6-21.5-1.4l-165-62.5V620.5h18c8.2,0,16.5,0.5,24.6,1.5c1.6,0.2,3.3,0.4,5,0.6
				c0.2,0,0.5,0.1,0.7,0.1c4.1,0.6,8.2,1.4,12.4,2.3c1.2,0.2,2.6,0.5,3.8,0.9c0.6,0.2,1.2,0.3,1.9,0.5c1.6,0.4,3.3,0.8,5,1.2
				c0.3,0.1,0.6,0.2,0.9,0.2c12.8,3.5,25.3,8.2,37.3,14.2c0.4,0.2,0.7,0.4,1.1,0.5c1.6,0.8,3,1.6,4.5,2.3c0.5,0.2,0.9,0.5,1.4,0.7
				c1.8,1,3.6,2,5.4,3c0,0,0.1,0,0.1,0.1c4.8,2.8,9.7,5.4,14.8,7.9c21.6,10.6,44.6,17.7,68.6,21.1c0.1,0,0.2,0,0.3,0l16.3,1.9
				l13.3,1.6l30.6,3.5l7.6,0.9l0,0l53.2,6.1c21.1,3,37.5,20.1,39.6,41.3l0.4,4l-213.1-20.8c-6.3-0.6-11.8,4-12.4,10.2
				c-0.6,6.2,4,11.8,10.2,12.4l225.9,22.1c0.5,0.1,0.9,0.2,1.5,0.2l45.2,2.6c0.2,0,0.4,0,0.6,0s0.5,0,0.7-0.1c0.2,0,0.5,0,0.8-0.1
				c0.3-0.1,0.6-0.1,0.9-0.2c0.2-0.1,0.5-0.1,0.8-0.2c0.3-0.1,0.7-0.2,1-0.4c0.2-0.1,0.4-0.2,0.6-0.2c0.5-0.2,1-0.5,1.6-0.9
				l102.8-68.8l0,0l49-32.8c11.1-7.5,26.3-4.6,34,6.5C870.9,676.8,869.2,690.6,860,698.8z"/>
		</g>
	</g>
</g>
<g class="st2">
	<path class="st1" d="M775.5,70.7c47.5,0,92.1,18.5,125.7,52.1s52.1,78.2,52.1,125.7v527c0,47.5-18.5,92.1-52.1,125.7
		c-33.6,33.6-78.2,52.1-125.7,52.1h-527c-47.5,0-92.1-18.5-125.7-52.1C89.2,867.6,70.7,823,70.7,775.5v-527
		c0-47.5,18.5-92.1,52.1-125.7S201,70.7,248.5,70.7H775.5 M775.5,50.7h-527c-109.2,0-197.8,88.6-197.8,197.8v527
		c0,109.2,88.6,197.8,197.8,197.8h527c109.2,0,197.8-88.6,197.8-197.8v-527C973.3,139.3,884.7,50.7,775.5,50.7L775.5,50.7z"/>
</g>
</svg>
